<?xml version="1.0" encoding="utf-8"?>
<!-- Generator: Adobe Illustrator 24.0.3, SVG Export Plug-In . SVG Version: 6.00 Build 0)  -->
<svg version="1.1" xmlns="http://www.w3.org/2000/svg" xmlns:xlink="http://www.w3.org/1999/xlink" x="0px" y="0px"
	 viewBox="0 0 3000 3000" style="enable-background:new 0 0 3000 3000;" xml:space="preserve">
<g id="less">
	<path d="M1855.5,2390.9c1.3,1.5,2.6,2.8,2.5,3c-1.2,1.4-2.6,2.6-3.9,3.9c-0.6-0.7-2-1.8-1.8-2.2
		C1853,2394.1,1854.1,2392.8,1855.5,2390.9z"/>
	<path d="M1912.1,1915c-5.9-15.4-10.4-31.5-18.3-45.8c-3.8-7-14.5-15.6-20.8-14.7c-8.9,1.3-17.3,9.9-24.6,16.8
		c-6.4,6.1-13.3,13.5-15.5,21.5c-2.9,10.5-2,22.2-1.6,33.4c1,28.3,26.3,41.4,39.8,61.9c11.7,17.8,26,34.3,35.1,53.3
		c6.8,14.2,11.5,32.1,9.2,47.1c-2.3,14.6-3.1,33.7-23.8,41.1c-11.4,4.1-20.3,19.9-31,20.7c-26.5,2-51.6-2.7-76.5-18.1
		c-24.3-15-22.7-38.4-30.5-58.7c-1.2-3.2,12.3-16,20-17.2c5.3-0.8,17,10,18.2,17c4.9,28.4,30.5,41.5,54.5,34.7
		c12.8-3.7,22.5-33.1,16.4-44.8c-7.6-14.5-13.4-30.1-22.4-43.5c-9.4-13.9-23.7-24.5-32.4-38.6c-15.3-25.1-31-51.2-19.8-83.1
		c5.4-15.5,9.5-31.6,16.2-46.6c3-6.7,11.3-10.9,16.3-17c18.6-22.7,44.3-18.1,68-16c21.5,1.9,33.3,19.8,43.2,37.1
		c13.2,22.8,19.1,47.8,12.1,73.7c-2.2,7.9-11.1,14-16.9,21c-6.1-5.3-13.6-9.7-17.9-16.2c-2.7-4.1-0.5-11.3-0.5-17.1
		C1909.7,1916.1,1910.9,1915.5,1912.1,1915z"/>
	<path d="M1677,2061.7c0.1-0.7,0.1-1.5,0.1-2.3c0-4.4,1-8.7,1.1-13.1c0.4-22.4-35.1-33.7-50.2-43.9c-4.4-3-7.9-7.4-12.4-10.3
		c-27.3-17.5-38.5-44.7-29.5-76.2c7.1-24.9,18.3-47.6,42.7-60.3c24.3-12.7,50-15.4,75.2-4.5c16,6.9,29.3,17.9,28.6,38.8
		c-0.4,12.8,2.8,25.9,1.1,38.4c-1,7.1-8,13.8-13.5,19.6c-1.7,1.8-8.9,1.8-10.2,0.1c-5.2-6.9-20-6.7-12.5-23.4
		c9.9-21.9-9.7-46.4-32.2-40.5c-10.9,2.8-20,15.6-28.2,25.3c-4.6,5.5-8,14.2-7.5,21.1c1.5,20.7,13.2,35,31.2,45.6
		c19.3,11.3,37.9,24,55.8,37.4c4.9,3.7,6.1,12.2,8.8,18.6c12.1,28.5,1.1,52.7-17.7,72.6c-14.4,15.2-31.7,33.1-50.5,37.2
		c-21.5,4.8-46.8,16.9-69.7-1.1c-5.4-4.2-12.7-6.3-19.4-8.6c-16.3-5.8-18.4-20.4-20.6-34.2c-2.8-17.5,5.1-30.1,21.6-36.4
		c6.5-2.5,13.8-2.7,20.7-4c1.4,7.5,3.7,14.9,3.9,22.4c0.2,11.9-5.6,27.7,12.7,29.3c22.1,2,42.4-5.1,56.7-23.7
		C1669.3,2077.9,1676.1,2071.4,1677,2061.7z"/>
	<path d="M1252.6,1751c15-7.8,29.8-16.1,45.1-23.1c6-2.7,15.2-5.1,19.6-2.3c5.8,3.7,12.9,13.8,11.5,19c-5.6,20.8-15.2,40.4-21.6,61
		c-7.2,22.9-11.8,46.7-18.9,69.6c-4.5,14.6-12.1,28.2-17.2,42.7c-9.2,26.3-18.4,52.7-26.2,79.4c-7.8,26.7-15.1,53.6-20.4,80.9
		c-1.8,9.4-0.1,22.1,5.2,29.6c7.7,11,20.8,9.6,31.5,1.8c12.4-9.1,23.7-19.8,36.6-27.9c4.9-3.1,12.9-1,19.5-1.3
		c-1.1,6.3-0.8,13.4-3.8,18.7c-4.6,8.4-11.4,15.6-17.2,23.3c-15.9,21-39.4,25.2-63.4,28.2c-32.6,4.2-65.1-37.2-55.9-68.5
		c5.8-19.6,4.6-41.2,10.2-60.9c9.1-31.9,20.6-63.2,32.3-94.3c12.6-33.4,26.8-66.3,39.8-99.6c5.5-14.1,10.1-28.7,14.1-43.3
		c0.6-2.1-4.2-7.2-7.4-8.4c-10.2-3.7-20.8-6.2-31.2-9.1c3.8-7.1,7.6-14.2,11.5-21.3C1248.4,1747.1,1250.5,1749,1252.6,1751z"/>
	<path d="M1431.2,2131.7c-29.4-1-59.7-22-65.7-51.3c-4.1-20-2.6-41.9,0.2-62.4c3.7-27.2,8.1-55,17.8-80.4
		c6-15.6,22.2-27.4,34.4-40.3c18.8-19.7,45.1-19.8,68.6-19.9c11.2,0,27.5,14.1,32.5,25.7c8.7,20.1,10.5,43.2,15.1,65.1
		c0.1,0.6,0.4,1.7,0.1,1.9c-7.5,6-14.4,15.9-22.6,17.2c-30.5,4.8-61.4,6.7-92.2,10c-1.9,0.2-4.6,2.9-5,4.8
		c-5.2,25.4-14,50.8-1.1,76.4c6.1,12.1,28.7,16.1,39.2,6.6c7.8-7.1,13.5-16.9,22.1-22.7c7.9-5.3,19.8-11.1,27.2-8.5
		c7.6,2.6,12.6,14.6,16.7,23.5c1,2.1-6.3,7.8-9.3,12.1C1489.5,2117.3,1461.1,2132.8,1431.2,2131.7z M1459,1959.8
		c25.2,0.7,43.4-5.1,29.6-30.8c-2.8-5.3-8.7-14.5-10.3-14c-11.6,4.1-23.1,9.5-33.5,16.2c-4.7,3-7.1,9.9-10,15.4
		c-3,5.6-5.4,11.7-8,17.5c5.1-0.1,10.4,0.4,15.4-0.3C1449.1,1962.7,1455.8,1960.6,1459,1959.8z"/>
</g>
<g id="from">
	<path d="M2014.8,1515.7c0.1,2.7-0.1,5.4-0.6,8.1c-4.3,22.4-11.7,44.6-18.5,66.3c-2.8,9-8.9,24.5-12.5,24.2
		c-12.6-0.9-27.9-4.5-36.1-13c-4.9-5.1-2.4-24.2,3.5-31.6c17.4-21.9,13.5-47.1,13.1-70.6c-0.4-24.6-26.3-35.4-49.7-24.4
		c-12.5,5.9-27.1,9-37.6,17.2c-14.6,11.4-23.6,26.9-23.9,47.6c-0.2,13-9.6,25.7-10.6,38.9c-1,13.3-6.9,21.8-18.2,19.5
		c-11.3-2.3-21.6-10.9-31.5-17.9c-1.7-1.3-0.7-10,1.8-13c14.5-17.1,20-58.4,10.9-78.6c-7.7-17.1-20.6-10-30.1-5.7
		c-11.8,5.3-22,14.4-32.2,22.7c-17.8,14.5-28.5,32.9-34.2,55.7c-6.5,26.6-25.2,44.6-42.1,41c-12.4-2.6-25.1-10.6-34.4-19.5
		c-7-6.7,2.5-20.9,12.4-18.6c20.2,4.8,23-11.3,27.1-22.7c6-16.9,8.9-35,12.7-52.7c0.6-3-0.5-6.7-1.7-9.7c-2.3-6-8.8-15.3-7.2-16.9
		c7.6-7.5,17.5-18.2,26.2-17.8c12.3,0.5,23.9,12.1,36.6,14.4c9.5,1.7,21.5-1.6,30.3-6.4c23.3-12.7,56.5-7.4,73.7,13.2
		c1,1.1,6.6-0.3,9.2-2c25-16.7,50.8-30.9,82.3-28.4c14.5,1.2,29.7,1.1,43,6c7.9,2.9,14.1,13.6,18.3,22.2
		C2002.1,1478.1,2014.1,1497.8,2014.8,1515.7z"/>
	<path d="M1324.9,1342.2c-1.2,9.3-1,22.3-5.3,33.7c-1.5,3.9-14.4,6-21.2,4.5c-3.7-0.8-5.9-10.6-7.8-16.6c-0.8-2.7,1.3-6.2,1.1-9.3
		c-0.2-2.7-1-6.2-2.9-7.5c-1.4-1-5.1,0.6-7.4,1.8c-34.6,19.7-46.6,53-53.7,89.3c-1.4,7.4-4.5,14.5-5.5,21.8c-0.3,2,4.8,6.9,6.4,6.5
		c7.2-1.9,14.2-7.9,21-7.4c10.3,0.6,22.1,3.1,29.7,9.3c3.8,3.1,2.8,21-1.2,23.3c-9.1,5.2-21.2,5.3-32.2,6.7
		c-11.1,1.3-23-0.4-33.1,3.3c-5.3,2-8.3,12.4-10.8,19.5c-14.1,40.9-26.2,82.6-41.9,122.9c-15.1,38.8-33,76.6-51,114.2
		c-7.8,16.3-48.5,20.2-64,11.1c-18.7-11-30.1-24.1-24.1-45.9c3.1-11.1,10-21.4,16.1-31.4c1.2-2.1,8.8-3.2,9.8-2
		c4.5,5.6,8.9,12,11,18.8c2,6.6,1.2,14.1,1.6,21.3c4.3-0.3,10.2,1,12.7-1.3c7.3-6.9,14.8-14.4,19.3-23.2
		c9.3-18.4,17.8-37.3,24.7-56.7c14-39.6,26.6-79.7,39.9-119.6c1.6-4.8,4.5-9.2,6.3-13.9c1.6-4.3,2.5-8.8,3.7-13.2
		c-7.2-0.4-14.4-0.5-21.5-1.3c-8.2-0.9-17.6-0.5-23.9-4.6c-3.7-2.4-5.6-15.4-2.8-18.4c4.7-5,14.1-8.5,21.1-8
		c28.4,2.3,47.4-10.7,52.6-38.8c5.1-27.3,15.8-51.6,30-75.8c16.7-28.3,41-36.9,70.4-38.9C1312.1,1315.1,1324.1,1323.9,1324.9,1342.2
		z"/>
	<path d="M1459.6,1546.4c0-35.2,11.4-59.9,30.7-79.6c11.5-11.7,26.5-21.8,41.9-27.3c8.9-3.2,22.1,2.8,32.4,7.2
		c11.6,4.9,21.5,13.9,33.1,18.9c21.7,9.4,32,52,21.2,68.9c-11.1,17.3-20.3,36.3-34.1,51c-8.9,9.5-24.7,12.6-37.4,18.3
		c-22.5,10-43.6,0.1-61.5-10C1467.3,1583.2,1461.6,1561.3,1459.6,1546.4z M1540.5,1572.8c1.2-0.8,8.2-3,12.1-7.8
		c9.9-12,19.6-24.4,27.1-37.9c9.6-17.4,0.6-32.4-13.9-40.3c-10.1-5.5-29.9-9.5-35.5-4.1c-12.8,12.6-22.4,30.4-28.2,47.8
		C1493.3,1556.9,1508,1574.1,1540.5,1572.8z"/>
	<path d="M1340.8,1570.8c0.9,18.8-13,14.7-23.6,13.4c-20.1-2.4-24.7-19-15.3-37.4c7.2-14.1,8.3-31.3,11.7-47.3
		c3.4-15.8,6.3-29.6,27.7-32.3c17-2.2,32.8-13.8,49.9-16.5c15.1-2.4,31.6,0.6,46.8,4c2.9,0.6,6.4,18.8,3.2,21.5
		c-6.6,5.7-18.3,10.5-26.2,8.6c-30.1-7.2-66.8,17.6-69.7,49.2C1344.1,1546,1342.3,1558.1,1340.8,1570.8z"/>
</g>
<g id="more">
	<path d="M1181.5,982.6c-10.2-2.2-20.6-6.9-30.5-6c-25.5,2.1-42.4,19.2-57.6,37.9c-8.2,10.1-18.1,19.3-24.1,30.6
		c-5.1,9.5-6,21.3-8.1,32.3c-3.6,19.2-7.9,38.4-8.9,57.8c-0.3,4.9,9.7,13,16.4,15.2c10.1,3.3,15.5,12.4,7.7,20.8
		c-6.5,7-14.7,15-23.3,17c-9.5,2.2-20.5-2.1-30.9-3.2c-3.8-0.4-7.9,0.7-11.6-0.1c-14-3.1-28.4-5.2-41.4-10.7c-4.9-2-7.3-12-8.7-18.8
		c-0.4-2.2,5.7-7.2,9.6-8.6c9.5-3.3,19.6-5,29.4-7.8c1.8-0.5,4.3-2.5,4.6-4.2c7.1-37.1,14.2-74.1,20.5-111.3
		c3.1-18.4,6.6-37.2,5.9-55.7c-0.7-17.4-15.4-12.5-24.8-8.1c-19.6,9-41.2,16.7-56.9,30.7c-22.3,19.7-44.1,42.2-58.3,67.8
		c-10,18-7,43.2-9.8,65.2c-2.4,18.1-4.1,36.2-7.5,54.1c-2.6,13.2-25.7,19.8-36.3,11.7c-2.1-1.6-6-0.8-8.9-1.6
		c-17.2-5-34.6-9.6-51.4-15.6c-3.4-1.2-7.5-8.2-6.7-11.4c1.3-5,5.6-10.6,10.2-13c7.6-4.1,16.5-5.9,24.8-8.7c0.6-0.2,1.2-0.6,1.8-0.8
		c17.9-5,19.8-10.3,18-31.8c-0.8-9,5-18.3,7-27.7c6.1-29,12.2-58,17.5-87.2c2.7-14.6,3.2-29.7,5.7-44.3c1.9-10.7-3.8-10.8-11.5-11.3
		c-12.1-0.7-24.3-1.6-36-4.5c-3.4-0.8-8.3-9.9-7-12.9c2.3-5.5,8-11.6,13.6-13.4c10.3-3.4,21.6-5.3,32.5-5.4
		c17.2-0.2,35.1-1.2,51.3,3.1c17.8,4.7,22.5,40.4,9.7,54c-2.3,2.4-1.3,8.1-1.4,12.4c0,1,2.5,3,2.6,2.9c2.5-2.1,4.7-4.7,7.4-6.5
		c14.3-9.8,28.1-20.3,43.2-28.7c13.2-7.3,27.3-14.6,41.8-17c13.7-2.2,30.1-1.3,42.4,4.5c13.2,6.2,24.4,18.6,33.8,30.3
		c3.9,4.8,1.1,15,1.5,22.8c0.1,1.3,1,2.5,1.6,3.8c1.1-0.5,2.3-1,3.4-1.6c20.2-11.8,40-24.5,60.9-34.9c5.4-2.7,14.3,2.1,21.6,2.2
		c9.9,0.2,19.9-1.1,29.8-1.1c18.1-0.1,27.4,12.9,33.4,26.7c5.6,12.7,8.9,27,10.1,40.9c1.3,15.1-1.3,30.5-1.8,45.9
		c-0.5,13.4,0.3,26.8-1,40.1c-1.2,12.9-4.3,25.7-6.2,38.6c-0.4,2.8-0.1,8,1.1,8.5c6.2,2.2,12.8,3.1,19.2,4.5
		c11.8,2.5,27.5-1.9,31.6,14.9c1.3,5.3-1.3,14.7-5.4,17.6c-6.6,4.7-13.9,11.3-22.3,12.2c-8.5,0.9-12.7-5.3-20.5-6.1
		c-9.4-0.9-22.7,2.6-32.6,2.9c-12.9,0.4-25.8,0.7-38.6-0.4c-8.7-0.7-22.6-6.7-24.1-12.8c-3-11.6,14.5-24,25.5-20
		c17.7,6.4,19.1-4.8,20.7-17.3c1.3-9.6,4.4-19,5.2-28.6c2-23.5,3-47.1,4.5-70.7c0.7-10.5,3.1-21.2,1.8-31.4
		c-1.3-10.3-6.3-20.2-9.7-30.2C1184.8,981.4,1183.1,982,1181.5,982.6z"/>
	<path d="M1937.9,1177.3c9.6,2.1,19.6,3,29.2,0.8c10.7-2.5,20.2-8.6,29.5-14.6c11.9-7.8,21.7-15.7,29.8-27.4
		c7.8-11.2,17.2-20.2,33.3-18.6c6.1,0.6,16.2,12.1,15.6,17.7c-1,9-8.8,17.7-14.9,25.7c-18.2,24.3-36.4,43.2-65.7,52.9
		c-27.9,9.3-59,9.4-86.8-0.7c-32.4-11.8-59.3-37.2-73.9-68.3c-17.3-36.9-5.1-76.4,12.9-110.7c6.9-13.2,15-25.9,22-39.1
		c14.3-27.1,34.8-32.6,59.8-47.9c41.6-25.6,101-35.6,135.6,7.4c14.3,17.8,12.2,37.8,14.6,59.2c1.3,11.5,5.2,24.4,1.4,34.2
		c-12.6,33.2-37,25-65.2,24.9c-22.1,0-44.1,2.9-66.2,3.3c-20.6,0.4-41.2-1.9-61.9-1.1c-13.5,0.5-12.3,36.7-11.4,45.1
		c2.4,23.1,23.2,42.8,44.1,51.5c4.9,2,9.9,3.6,15,4.8C1935.8,1176.9,1936.8,1177.1,1937.9,1177.3z M1997.8,963.3
		c-7.2,0.8-16-0.7-21.5,2.9c-22.5,14.5-44.3,30-65.4,46.5c-3.9,3.1-3.1,12.1-4.5,18.4c5.5,1.1,11.3,3.7,16.6,2.9
		c27.2-4,54.1-10.2,81.3-13.1c26.5-2.8,26.6-1.5,24.5-27.9C2027.2,972,2017.1,962.5,1997.8,963.3z"/>
	<path d="M1427.8,948.2c3.1-0.6,6.2-1.2,9.3-1.7c1.3-0.2,2.6-0.4,4-0.3c2.1,0.2,3.9,1.4,5.7,2.5c34.1,21.9,74.8,44.7,75.2,90.1
		c0.2,24.2-0.3,49.3-6.2,72.6c-5.9,23.3-19,44.9-41.7,57.3c-16.2,8.9-32.5,21.6-49.8,23.6c-15.2,1.8-32.5-7.6-47.6-14.7
		c-8.9-4.1-18.6-12-22.3-20.5c-11.1-25.7-19.3-52.7-28.8-79.1c-11-30.6,5.5-55.9,19-79.5C1362.4,967.4,1394.5,954.9,1427.8,948.2z
		 M1473.3,1025.8c-0.9-11.9-30.7-37.2-48.9-36.9c-14.6,0.2-27,7.4-37.5,20.3c-17.3,21.2-19.5,46.9-18.1,70.2
		c1.1,17.8,15.8,35.8,27.4,51.5c6.5,8.8,20.3,19.7,28.5,18c12.6-2.6,28.6-12.7,33.3-23.9c9.6-22.9,13.5-48.4,18.1-73.1
		C1477.7,1043.7,1474.4,1034.5,1473.3,1025.8z"/>
	<path d="M1652.2,982.7c0.9,2,1.9,4.1,2.8,6.1c1.7-1.2,3.4-2.5,5.1-3.7c16.9-11.7,33.5-23.6,50.7-34.8c8.6-5.6,17.7-12,27.4-14.3
		c9.9-2.3,22.2-2.6,31.2,1.2c11.7,5,22.8,13.8,31.3,23.4c6.2,6.9,8.5,17.7,11.5,27.1c8.5,26-16.6,30.5-29.4,41.3
		c-3.4,2.9-18.4-5.1-25.9-11c-2.7-2.1,0.7-12.5,2.1-19c1.3-6.3,6.9-15.8,4.7-18c-4.7-4.7-13.2-7.6-20.1-7.5
		c-31.6,0-51.8,21.7-71.9,41.6c-16.2,16.1-21,36.7-20.6,59.9c0.4,18.4-4.7,37-7.2,55.5c-0.3,2-0.2,5.6,0.6,5.8
		c4.4,1.4,9.5,3.8,13.6,2.7c14.8-3.7,32.9,8.9,33.2,24.3c0,2.4-1.8,6.8-2.7,6.8c-10.7-0.2-9.5,20.1-27.4,12.3
		c-17.5-7.7-39.2-5.4-59-8.4c-13.2-2-26.2-5.9-39.3-8.5c-24-4.8-10.3-16.4-3.6-24.6c2.4-2.9,11.3-2,16.6-0.6
		c12.4,3.3,27.2-5.9,28.8-18.8c1.4-11.1,3.7-22.1,4.5-33.2c1.8-26.7,3-53.4,4.5-80.2c0.2-3.9,2.1-8,1.5-11.7c-0.6-3.3-2.9-8.1-5.5-9
		c-12.8-4.5-26.2-7.3-38.9-12c-3.9-1.5-7.8-7-8.6-11.3c-0.6-3.2,3.1-9.6,6.2-10.6c8-2.7,16.8-2.9,25.2-4.6c10.4-2.1,20.7-4.7,31.1-7
		c1.8-0.4,4.9-1.2,5.4-0.5c9.2,12.5,18.1,25.3,27.1,38C1655.6,980.5,1653.9,981.6,1652.2,982.7z"/>
</g>
<g id="square">
	<path d="M2340.8,717.2c0,22.8,0,45.6,0,68.4c0,32.6-0.1,65.1-0.2,97.7c-0.1,32-0.1,64-0.1,96c0,34.4-0.2,68.7,0.1,103.1
		c0.4,42.6,1.2,85.2,1.7,127.8c0.3,25.9,1.1,51.9,0.8,77.8c-0.4,38.4-2.2,76.7-2.1,115c0,36.1,2.3,72.2,2.4,108.3
		c0.2,40.7-1.1,81.3-1.5,122c-0.5,44.8-1,89.6-1,134.5c0,21.2,1.6,42.3,1.4,63.5c0,6.4-5.2,12.9-5,19.3c1.2,38.7,3.6,77.4,4.6,116.1
		c0.3,10.1-4.5,20.2-4.7,30.4c-0.6,30.6-0.3,61.2,0,91.8c0.2,18.7,1.9,37.5,1.1,56.1c-1.3,31.4-6,62.8-5.6,94.2
		c0.4,31.4,5.7,62.8,7.9,94.3c0.6,9,1,20.4-3.8,26.5c-3.2,4.1-15.8,0.6-24.1,1.2c-3.2,0.2-6.3,2.6-9.5,3.4c-4.2,1.1-8.9,3-12.8,2.1
		c-13-3.2-25.6-10.2-38.7-11c-33.5-2.2-67.2-2-100.8-2.7c-52.8-1.1-105.6-1.9-158.3-3.3c-20.8-0.5-41.7-2.4-62.5-3.1
		c-26.4-0.8-52.8-0.9-79.2-1.5c-57.5-1.3-115-2.7-172.5-4.3c-42-1.2-84-3.7-126.1-3.7c-37.4-0.1-74.9,2.4-112.3,3.7
		c-37.5,1.3-75.1,2.8-112.6,3.4c-20.4,0.3-40.8-1.5-61.2-1.5c-31.6-0.1-63.1,0.8-94.7,0.8c-16.7,0-33.5-0.8-50.2-1.7
		c-26.6-1.4-53.1-3.7-79.8-4.5c-41.9-1.2-83.9-2.7-125.8-1.9c-46.5,0.9-92.9,4.4-139.3,6.5c-22.6,1-45.1,1.5-67.7,1.8
		c-8.6,0.1-17.4-0.2-25.7-2.1c-6.7-1.5-13-5.5-19.2-9c-1.8-1-3.6-4.2-3.5-6.2c1.5-24.3,3.7-48.6,5.1-72.9c2-34.7,4.3-69.4,4.9-104.1
		c0.6-35.7-1.6-71.4-0.9-107.1c0.6-34.8,3.9-69.6,4.9-104.4c0.7-25.5-0.9-51.1-0.7-76.7c0.4-42.9,1.4-85.8,2.4-128.7
		c0.7-32.1,1.6-64.2,2.8-96.2c1.1-30.9,3.4-61.8,3.8-92.8c0.3-25.9-1.9-51.8-1.9-77.7c-0.1-37.7,0.5-75.4,1.2-113.1
		c0.6-29,2.3-58,2.7-87c0.4-26.2-0.5-52.4-0.3-78.6c0.2-24.4,1.6-48.7,1.9-73.1c0.3-32.4-0.9-64.8,0.1-97.1c0.8-27,4.2-54,5.6-81
		c0.9-17-1-34.2,0.4-51.1c4.1-48.2,9.2-96.4,13.8-144.6c0.5-5.6-0.1-11.3,0.1-17c0.7-20.7,18.5-37.9,36.5-29.1
		c23.2,11.3,44.8,4.9,67.2,5.1c41,0.4,82,2.2,123,2.7c25.1,0.3,50.2-0.7,75.4-0.9c55.1-0.4,110.2-0.6,165.2-0.8
		c40.5-0.1,81.1,0.5,121.6-0.1c24.4-0.3,48.8-3,73.2-3.4c29.8-0.4,59.6,0.7,89.4,0.7c49.1,0,98.1-0.5,147.2-0.6
		c45.5-0.1,91-0.2,136.6,0.3c38.9,0.4,77.9,2,116.8,2.2c40,0.1,80-1.4,120-1.4c35.2,0,70.5,1,105.7,1.7c31.1,0.6,62.3,2,93.4,2
		c29.7,0,59.5-0.7,89.2-2.3c11.2-0.6,22.6-3.7,33.2-7.6C2314.5,686.2,2338.3,701.3,2340.8,717.2z M2302,735c-1-1.2-4.2-8.8-7.8-9
		c-47.8-2.2-95.7-3.8-143.5-4.6c-48.4-0.7-96.8-0.2-145.2-0.4c-34.2-0.1-68.3-1.1-102.5-0.7c-33.8,0.4-67.5,2.6-101.3,3
		c-48.3,0.5-96.6-0.5-144.8-0.1c-39.3,0.3-78.6,2.2-118,2.2c-44.7-0.1-89.3-2-134-2.3c-41.8-0.3-83.6,0.7-125.4,0.6
		c-38.5-0.1-77-0.7-115.5-1.3c-73.7-1.2-147.4-2.7-221.2-3.8c-61.5-0.9-123.1-1.5-184.6-1.6c-3,0-7.9,6.1-8.6,10
		c-1.8,9.5-1,19.4-2.5,29c-2.9,18-7.5,35.7-10,53.7c-1.6,11.2-0.6,22.7-1.1,34.1c-0.9,21.7-2.5,43.4-2.8,65.1
		c-0.5,36.2,0.6,72.4-0.3,108.6c-0.9,32.7-4.5,65.4-5.4,98.1c-1.2,41.4-0.4,82.9-1.4,124.3c-0.2,9.7-5.6,19.4-5.9,29.1
		c-0.2,8.9,4.9,17.9,4.9,26.9c0.3,28.6-1,57.2-1.1,85.7c0,35.6,0.9,71.1,0.9,106.7c-0.1,45.5-0.5,90.9-1.2,136.4
		c-0.3,24.9-1.8,49.9-2.1,74.8c-0.4,33.7,0.4,67.4-0.4,101.1c-0.4,15.1-5,30.1-5.2,45.2c-0.2,19.3,3.1,38.7,3.1,58.1
		c-0.1,37.6-1.7,75.3-2.4,112.9c-0.6,35.6-0.4,71.2-1.4,106.7c-0.4,12.7-4.5,25.3-4.7,38c-0.2,14.8,2.7,29.6,2.9,44.4
		c0.2,19.7-0.9,39.5-1.4,59.2c-0.2,10-2.3,20.4,0,29.8c3.9,15.7,19.2,13.7,31.1,15.4c12.2,1.8,24.7,2.8,37.1,2.8
		c11.1,0,22.3-2.7,33.4-2.6c28.3,0.3,56.6,1.9,84.9,2.2c44.4,0.6,88.7,0.7,133.1,0.8c23.6,0.1,47.2-0.4,70.8-0.5
		c54.6-0.3,109.1-0.7,163.7-0.6c29,0,57.9,0.6,86.9,1.4c47.5,1.3,94.9,3.4,142.4,4.3c66.4,1.2,132.8,1.8,199.2,2.4
		c28.9,0.3,57.9-0.4,86.8,0.2c57.4,1.3,114.7,3.4,172.1,4.8c40.2,1,80.4,1.2,120.7,2.1c60.3,1.3,120.6,3.5,180.9,4
		c16.2,0.1,37.4,5.8,43.5-18.1c2.7-10.5,1.3-22,1.8-33.1c0.7-19.2,2.2-38.5,2-57.7c-0.4-30.6-2.8-61.1-2.7-91.7
		c0-30.2,2.6-60.3,3-90.5c0.5-35.8-0.5-71.7-0.1-107.5c0.6-56.6,2-113.1,2.6-169.7c0.4-42.6-0.3-85.3,0-128
		c0.2-26.5,1.5-53,1.9-79.5c0.3-19.4-0.7-38.9-0.2-58.3c0.9-30.4,3.6-60.8,3.7-91.2c0.2-48.9-1.8-97.8-1.7-146.6
		c0-51.6,2.2-103.3,1.9-154.9c-0.3-65.3-2.3-130.5-3.3-195.8c-0.5-30.5,0.4-61-0.4-91.5C2306.2,791.8,2303.9,765.8,2302,735z"/>
</g>
</svg>
